<!-- Generated by IcoMoon.io -->
<svg version="1.1" xmlns="http://www.w3.org/2000/svg" width="1024" height="1024" viewBox="0 0 1024 1024" fill="#000">
<title></title>
<g id="icomoon-ignore">
</g>
<path d="M246.357 312.185c-18.177-18.178-18.177-47.648 0-65.825l232.728-232.727c18.176-18.177 47.649-18.177 65.824 0l232.727 232.727c18.176 18.178 18.176 47.648 0 65.825s-47.649 18.177-65.824 0l-153.269-153.269v539.266c0 25.707-20.839 46.546-46.546 46.546s-46.546-20.839-46.546-46.546v-539.266l-153.269 153.269c-18.178 18.177-47.648 18.177-65.825 0z"></path>
<path d="M46.542 651.635c25.706 0 46.546 20.839 46.546 46.546v186.182c0 25.707 20.84 46.546 46.546 46.546h744.727c25.707 0 46.546-20.839 46.546-46.546v-186.182c0-25.707 20.839-46.546 46.546-46.546s46.546 20.839 46.546 46.546v186.182c0 77.121-62.516 139.636-139.636 139.636h-744.727c-77.119 0-139.636-62.516-139.636-139.636v-186.182c0-25.707 20.84-46.546 46.546-46.546z"></path>
</svg>
